# xmcd
# Track frame offsets:
# 150
# 12743
# 25503
# 43398
# 57525
# 71405
# 88058
# 103118
# 116038
# 130400
# 147152
# 161606
# 174080
# 191646
# 206512
# 223797
# 238208
# 253052
# 268598
# 284001
#
# Disc length: 3971 seconds
# Revision: 0
# Processed by: cddbd v1.5.2PL0 Copyright (c) Steve Scherf et al.
# Submitted via: VisiTrax 2.11.2.271 - For more info visit www.synapsa.com
#
DISCID=3b0f8114
DTITLE=Lasse Stefanz - Vår Bästa Country [CD2)
DYEAR=2012
DGENRE=Dansband
TTITLE0=Jackson
TTITLE1=Säg Till När Du Är Klar (Pick Me Up On Your Way Down)
TTITLE2=California Blue
TTITLE3=Tid Att Ta Farväl (Curtain In The Window)
TTITLE4=En Slant I Min Jukebox (Jones On The Jukebox)
TTITLE5=Innan Allt Är För Sent
TTITLE6=Jag Ångrar Mig (On Second Thought)
TTITLE7=Det Är Samma Blåa Ögon (The Same Eyes That Always Drowe Me Crazy)
TTITLE8=Ett Hundra Mil Från Dig (Guitars And Cadillacs)
TTITLE9=Morgongåva (Sacramento)
TTITLE10=För Många Minnen Kvar (Tonight The Bottle Let Me Down)
TTITLE11=Wait A Minute
TTITLE12=Today I Started Loving You
TTITLE13=Kan Vi Två Trots Allt Va' Vänner (Old Friends)
TTITLE14=Orden Som Min Mor Sa (A Bible And Busticket Home)
TTITLE15=Du Och Jag
TTITLE16=Nu Får Det Vara Slut (I'm Gonna Get A Life)
TTITLE17=Mitt Hjärta Tar Semester Nu (Give My Heart A Rest)
TTITLE18=En Flicka Från Igår (A Girl From Yesterday)
TTITLE19=Om Himlen Och Österlen
EXTD=
EXTT0=
EXTT1=
EXTT2=
EXTT3=
EXTT4=
EXTT5=
EXTT6=
EXTT7=
EXTT8=
EXTT9=
EXTT10=
EXTT11=
EXTT12=
EXTT13=
EXTT14=
EXTT15=
EXTT16=
EXTT17=
EXTT18=
EXTT19=
PLAYORDER=
